<?xml version="1.0" standalone="no"?>
<!DOCTYPE svg PUBLIC "-//W3C//DTD SVG 20010904//EN"
 "http://www.w3.org/TR/2001/REC-SVG-20010904/DTD/svg10.dtd">
<svg version="1.0" xmlns="http://www.w3.org/2000/svg"
 width="1554.000000pt" height="1554.000000pt" viewBox="0 0 1554.000000 1554.000000"
 preserveAspectRatio="xMidYMid meet">
<metadata>
Created by potrace 1.14, written by Peter Selinger 2001-2017
</metadata>
<g transform="translate(0.000000,1554.000000) scale(0.100000,-0.100000)"
fill="#000000" stroke="none">
<path d="M685 9774 c-22 -15 -44 -32 -50 -39 -7 -8 -10 -462 -9 -1321 l0
-1309 30 -59 c36 -73 119 -159 214 -220 146 -95 361 -226 369 -226 5 0 11 -4
13 -8 2 -4 54 -37 116 -73 62 -35 120 -69 130 -74 73 -43 266 -147 287 -155
23 -9 25 -14 25 -74 l0 -65 -57 38 c-32 21 -70 44 -86 52 -15 8 -206 121 -425
252 -218 131 -406 244 -417 250 -171 101 -221 153 -259 263 -18 54 -18 28 -12
1822 2 474 2 862 0 862 -4 0 -104 -59 -114 -67 -2 -2 -5 -590 -5 -1306 0 -949
3 -1314 11 -1348 15 -62 55 -128 106 -175 41 -38 210 -144 229 -144 5 0 9 -4
9 -10 0 -5 5 -10 10 -10 6 0 29 -11 51 -26 22 -14 55 -33 72 -43 18 -10 136
-79 262 -153 127 -75 246 -145 265 -156 202 -115 338 -193 351 -201 13 -7 16
-19 12 -48 -3 -21 -6 -39 -8 -41 -2 -2 -155 84 -305 173 -14 8 -95 56 -180
106 -85 50 -162 95 -170 100 -24 15 -222 130 -260 152 -126 70 -403 236 -442
264 -53 38 -105 110 -114 157 -3 18 -4 618 -2 1334 3 731 1 1302 -4 1302 -5 0
-32 -15 -61 -33 l-52 -34 0 -1309 0 -1309 28 -57 c46 -95 113 -145 461 -348
175 -102 335 -195 355 -207 21 -11 128 -74 237 -138 109 -65 219 -129 244
-143 25 -13 57 -33 72 -43 14 -11 28 -19 31 -19 3 0 35 -18 72 -41 55 -33 74
-40 100 -35 37 7 78 48 93 92 12 36 9 651 -3 699 -23 89 -74 141 -241 243 -66
40 -175 109 -244 152 -195 124 -171 116 -235 78 -30 -18 -55 -35 -55 -38 0 -4
138 -88 296 -180 24 -14 80 -47 126 -75 46 -27 88 -52 93 -54 26 -10 86 -65
105 -97 28 -44 46 -113 49 -186 l2 -57 -40 22 c-22 12 -89 51 -148 87 -59 35
-117 69 -128 76 -134 75 -609 367 -634 389 -43 39 -85 100 -101 150 -11 32
-13 162 -11 635 8 2001 8 2030 -3 2030 -6 0 -29 -12 -51 -26z"/>
<path d="M90 9420 c-19 -11 -45 -25 -57 -32 -13 -6 -23 -21 -24 -32 0 -12 0
-599 -1 -1306 l0 -1285 21 -48 c12 -27 48 -77 81 -111 65 -68 99 -92 305 -221
85 -53 289 -175 293 -175 2 0 16 -8 30 -19 26 -18 479 -286 587 -346 176 -99
216 -117 263 -118 59 0 130 30 110 48 -10 9 -647 378 -868 502 -56 32 -144 83
-160 93 -66 41 -244 140 -251 140 -5 0 -9 5 -9 10 0 6 -5 10 -11 10 -19 0
-142 86 -186 128 -22 23 -52 63 -65 89 l-23 48 3 1323 c1 727 1 1322 0 1322
-2 0 -19 -9 -38 -20z"/>
<path d="M7508 8915 c-2 -1 -39 -5 -83 -9 -296 -25 -545 -194 -679 -462 -49
-99 -93 -245 -109 -365 -15 -103 -16 -515 -3 -584 34 -170 53 -233 103 -343
94 -210 281 -374 514 -451 68 -22 85 -26 174 -41 52 -8 321 -6 365 4 14 2 54
10 90 16 201 36 402 132 509 244 l35 36 0 437 1 438 -433 3 -432 2 -1 -35 c0
-19 0 -73 0 -120 0 -47 0 -105 0 -130 l1 -45 205 0 205 0 0 -42 c3 -334 2
-339 -15 -358 -70 -77 -329 -119 -492 -79 -171 42 -290 172 -343 374 -29 111
-33 162 -34 380 0 275 19 396 86 532 51 102 113 157 247 217 13 6 78 11 145
11 176 0 264 -37 338 -144 32 -46 78 -162 78 -198 0 -8 12 -13 33 -14 46 -1
368 -1 391 0 16 1 17 6 11 49 -53 361 -281 595 -641 657 -77 13 -258 27 -266
20z"/>
<path d="M3446 8872 c-3 -5 -5 -503 -5 -1106 l0 -1097 422 4 c232 2 436 7 452
10 17 4 44 10 60 13 62 13 182 58 253 95 277 145 461 431 501 779 9 84 7 383
-4 445 -29 167 -93 334 -174 454 -110 162 -293 296 -491 360 -65 21 -79 25
-175 41 -67 11 -832 13 -839 2z m837 -378 c215 -56 338 -210 381 -481 7 -46
12 -155 10 -268 -1 -159 -5 -204 -23 -275 -59 -228 -180 -365 -367 -415 -74
-20 -369 -29 -382 -11 -6 8 -10 1394 -3 1453 2 24 288 22 384 -3z"/>
<path d="M5650 7775 l0 -1105 220 0 220 0 0 1105 0 1105 -220 0 -220 0 0
-1105z"/>
<path d="M8990 7775 l0 -1105 220 0 220 0 0 743 c1 408 1 904 1 1102 l1 360
-221 3 -221 2 0 -1105z"/>
<path d="M9839 8843 c-2 -162 0 -314 5 -322 4 -6 109 -10 289 -10 155 0 303 0
330 -1 l47 0 0 -920 0 -920 228 0 227 0 -1 920 -1 920 286 1 c157 0 310 0 339
-1 l52 -1 1 48 c0 65 0 261 0 296 l-1 27 -900 0 -900 0 -1 -37z"/>
<path d="M12505 8868 c-3 -7 -37 -98 -76 -203 -39 -104 -72 -194 -73 -200 -2
-5 -7 -21 -13 -35 -5 -14 -40 -108 -78 -210 -37 -102 -80 -219 -96 -260 -15
-41 -57 -154 -93 -250 -35 -96 -87 -236 -114 -310 -28 -74 -89 -238 -135 -365
-47 -126 -97 -260 -111 -298 l-25 -67 240 2 240 3 73 218 c40 121 78 222 84
226 13 8 778 8 786 0 4 -3 39 -105 80 -225 l73 -219 242 -3 241 -2 -10 22 c-5
13 -31 84 -59 158 -27 74 -93 252 -146 395 -53 143 -113 303 -132 355 -19 52
-65 174 -101 270 -36 96 -71 191 -78 210 -14 40 -257 693 -282 758 l-16 42
-208 0 c-158 0 -210 -3 -213 -12z m353 -961 c73 -221 132 -405 132 -409 0 -5
-121 -8 -270 -8 -202 0 -270 3 -270 12 0 21 261 808 268 808 4 0 67 -181 140
-403z"/>
<path d="M14118 8868 c-2 -7 -3 -503 -3 -1103 l1 -1090 707 -3 707 -2 0 180
c0 180 0 180 -22 181 -13 0 -229 1 -480 1 -419 0 -458 1 -459 16 0 10 -2 424
-2 922 l-2 905 -221 3 c-172 2 -223 0 -226 -10z"/>
<path d="M1833 7487 c-73 -41 -78 -45 -68 -55 6 -6 100 -67 210 -136 110 -69
205 -130 211 -135 7 -5 27 -18 45 -28 88 -47 154 -108 179 -166 16 -37 19 -79
24 -357 5 -313 5 -315 -18 -373 -13 -31 -20 -60 -15 -62 20 -13 89 36 115 81
l27 46 0 308 c-1 325 -6 408 -28 449 -26 51 -94 101 -340 256 -137 86 -262
165 -276 175 -26 18 -27 18 -66 -3z"/>
<path d="M1603 7347 c-29 -18 -53 -35 -53 -38 0 -3 126 -84 280 -180 155 -95
300 -192 323 -214 26 -25 47 -57 55 -83 9 -28 14 -141 17 -342 5 -300 5 -301
-19 -360 l-25 -60 22 0 c29 0 92 52 114 93 15 27 17 66 16 272 0 323 -4 432
-15 473 -16 57 -82 114 -263 226 -93 57 -201 125 -240 149 -38 24 -90 56 -115
70 l-45 26 -52 -32z"/>
<path d="M1393 7214 c-29 -19 -53 -36 -53 -38 0 -2 53 -36 118 -76 64 -39 167
-103 227 -141 61 -38 117 -73 125 -76 28 -13 115 -76 142 -104 56 -58 59 -77
65 -415 4 -293 3 -314 -15 -355 -35 -78 -35 -79 1 -67 41 14 84 53 107 98 16
32 17 64 14 355 -4 359 -5 368 -28 412 -24 48 -80 90 -309 232 -115 72 -214
134 -220 139 -7 5 -37 23 -67 39 l-55 31 -52 -34z"/>
</g>
</svg>
