<svg version="1.0" xmlns="http://www.w3.org/2000/svg" width="2072" height="2072" viewBox="0 0 1554 1554"><path d="M68.5 576.6c-2.2 1.5-4.4 3.2-5 3.9-.7.8-1 46.2-.9 132.1v130.9l3 5.9c3.6 7.3 11.9 15.9 21.4 22 14.6 9.5 36.1 22.6 36.9 22.6.5 0 1.1.4 1.3.8.2.4 5.4 3.7 11.6 7.3 6.2 3.5 12 6.9 13 7.4 7.3 4.3 26.6 14.7 28.7 15.5 2.3.9 2.5 1.4 2.5 7.4v6.5l-5.7-3.8c-3.2-2.1-7-4.4-8.6-5.2-1.5-.8-20.6-12.1-42.5-25.2-21.8-13.1-40.6-24.4-41.7-25-17.1-10.1-22.1-15.3-25.9-26.3-1.8-5.4-1.8-2.8-1.2-182.2.2-47.4.2-86.2 0-86.2-.4 0-10.4 5.9-11.4 6.7-.2.2-.5 59-.5 130.6 0 94.9.3 131.4 1.1 134.8 1.5 6.2 5.5 12.8 10.6 17.5 4.1 3.8 21 14.4 22.9 14.4.5 0 .9.4.9 1 0 .5.5 1 1 1 .6 0 2.9 1.1 5.1 2.6 2.2 1.4 5.5 3.3 7.2 4.3 1.8 1 13.6 7.9 26.2 15.3 12.7 7.5 24.6 14.5 26.5 15.6 20.2 11.5 33.8 19.3 35.1 20.1 1.3.7 1.6 1.9 1.2 4.8-.3 2.1-.6 3.9-.8 4.1-.2.2-15.5-8.4-30.5-17.3-1.4-.8-9.5-5.6-18-10.6s-16.2-9.5-17-10c-2.4-1.5-22.2-13-26-15.2-12.6-7-40.3-23.6-44.2-26.4-5.3-3.8-10.5-11-11.4-15.7-.3-1.8-.4-61.8-.2-133.4.3-73.1.1-130.2-.4-130.2s-3.2 1.5-6.1 3.3l-5.2 3.4v261.8l2.8 5.7c4.6 9.5 11.3 14.5 46.1 34.8 17.5 10.2 33.5 19.5 35.5 20.7 2.1 1.1 12.8 7.4 23.7 13.8 10.9 6.5 21.9 12.9 24.4 14.3 2.5 1.3 5.7 3.3 7.2 4.3 1.4 1.1 2.8 1.9 3.1 1.9.3 0 3.5 1.8 7.2 4.1 5.5 3.3 7.4 4 10 3.5 3.7-.7 7.8-4.8 9.3-9.2 1.2-3.6.9-65.1-.3-69.9-2.3-8.9-7.4-14.1-24.1-24.3-6.6-4-17.5-10.9-24.4-15.2-19.5-12.4-17.1-11.6-23.5-7.8-3 1.8-5.5 3.5-5.5 3.8 0 .4 13.8 8.8 29.6 18 2.4 1.4 8 4.7 12.6 7.5 4.6 2.7 8.8 5.2 9.3 5.4 2.6 1 8.6 6.5 10.5 9.7 2.8 4.4 4.6 11.3 4.9 18.6l.2 5.7-4-2.2c-2.2-1.2-8.9-5.1-14.8-8.7-5.9-3.5-11.7-6.9-12.8-7.6-13.4-7.5-60.9-36.7-63.4-38.9-4.3-3.9-8.5-10-10.1-15-1.1-3.2-1.3-16.2-1.1-63.5.8-200.1.8-203-.3-203-.6 0-2.9 1.2-5.1 2.6z"/><path d="M9 612c-1.9 1.1-4.5 2.5-5.7 3.2-1.3.6-2.3 2.1-2.4 3.2 0 1.2 0 59.9-.1 130.6v128.5l2.1 4.8c1.2 2.7 4.8 7.7 8.1 11.1 6.5 6.8 9.9 9.2 30.5 22.1C50 920.8 70.4 933 70.8 933c.2 0 1.6.8 3 1.9 2.6 1.8 47.9 28.6 58.7 34.6 17.6 9.9 21.6 11.7 26.3 11.8 5.9 0 13-3 11-4.8-1-.9-64.7-37.8-86.8-50.2-5.6-3.2-14.4-8.3-16-9.3-6.6-4.1-24.4-14-25.1-14-.5 0-.9-.5-.9-1 0-.6-.5-1-1.1-1-1.9 0-14.2-8.6-18.6-12.8-2.2-2.3-5.2-6.3-6.5-8.9l-2.3-4.8.3-132.3c.1-72.7.1-132.2 0-132.2-.2 0-1.9.9-3.8 2zm741.8 50.5c-.2.1-3.9.5-8.3.9-29.6 2.5-54.5 19.4-67.9 46.2-4.9 9.9-9.3 24.5-10.9 36.5-1.5 10.3-1.6 51.5-.3 58.4 3.4 17 5.3 23.3 10.3 34.3 9.4 21 28.1 37.4 51.4 45.1 6.8 2.2 8.5 2.6 17.4 4.1 5.2.8 32.1.6 36.5-.4 1.4-.2 5.4-1 9-1.6 20.1-3.6 40.2-13.2 50.9-24.4l3.5-3.6v-43.7l.1-43.8-43.3-.3-43.2-.2-.1 3.5v25l.1 4.5h41v4.2c.3 33.4.2 33.9-1.5 35.8-7 7.7-32.9 11.9-49.2 7.9-17.1-4.2-29-17.2-34.3-37.4-2.9-11.1-3.3-16.2-3.4-38 0-27.5 1.9-39.6 8.6-53.2 5.1-10.2 11.3-15.7 24.7-21.7 1.3-.6 7.8-1.1 14.5-1.1 17.6 0 26.4 3.7 33.8 14.4 3.2 4.6 7.8 16.2 7.8 19.8 0 .8 1.2 1.3 3.3 1.4 4.6.1 36.8.1 39.1 0 1.6-.1 1.7-.6 1.1-4.9-5.3-36.1-28.1-59.5-64.1-65.7-7.7-1.3-25.8-2.7-26.6-2zm-406.2 4.3c-.3.5-.5 50.3-.5 110.6v109.7l42.2-.4c23.2-.2 43.6-.7 45.2-1 1.7-.4 4.4-1 6-1.3 6.2-1.3 18.2-5.8 25.3-9.5 27.7-14.5 46.1-43.1 50.1-77.9.9-8.4.7-38.3-.4-44.5-2.9-16.7-9.3-33.4-17.4-45.4-11-16.2-29.3-29.6-49.1-36-6.5-2.1-7.9-2.5-17.5-4.1-6.7-1.1-83.2-1.3-83.9-.2zm83.7 37.8c21.5 5.6 33.8 21 38.1 48.1.7 4.6 1.2 15.5 1 26.8-.1 15.9-.5 20.4-2.3 27.5-5.9 22.8-18 36.5-36.7 41.5-7.4 2-36.9 2.9-38.2 1.1-.6-.8-1-139.4-.3-145.3.2-2.4 28.8-2.2 38.4.3zM565 776.5V887h44V666h-44v110.5zm334 0V887h44v-74.3c.1-40.8.1-90.4.1-110.2l.1-36-22.1-.3-22.1-.2v110.5zm84.9-106.8c-.2 16.2 0 31.4.5 32.2.4.6 10.9 1 28.9 1 15.5 0 30.3 0 33 .1h4.7v184h45.5l-.1-92-.1-92 28.6-.1c15.7 0 31 0 33.9.1l5.2.1.1-4.8v-29.6l-.1-2.7H984l-.1 3.7zm266.6-2.5c-.3.7-3.7 9.8-7.6 20.3-3.9 10.4-7.2 19.4-7.3 20-.2.5-.7 2.1-1.3 3.5-.5 1.4-4 10.8-7.8 21-3.7 10.2-8 21.9-9.6 26-1.5 4.1-5.7 15.4-9.3 25-3.5 9.6-8.7 23.6-11.4 31-2.8 7.4-8.9 23.8-13.5 36.5-4.7 12.6-9.7 26-11.1 29.8l-2.5 6.7 24-.2 24-.3 7.3-21.8c4-12.1 7.8-22.2 8.4-22.6 1.3-.8 77.8-.8 78.6 0 .4.3 3.9 10.5 8 22.5l7.3 21.9 24.2.3 24.1.2-1-2.2c-.5-1.3-3.1-8.4-5.9-15.8-2.7-7.4-9.3-25.2-14.6-39.5-5.3-14.3-11.3-30.3-13.2-35.5-1.9-5.2-6.5-17.4-10.1-27-3.6-9.6-7.1-19.1-7.8-21-1.4-4-25.7-69.3-28.2-75.8l-1.6-4.2h-20.8c-15.8 0-21 .3-21.3 1.2zm35.3 96.1c7.3 22.1 13.2 40.5 13.2 40.9 0 .5-12.1.8-27 .8-20.2 0-27-.3-27-1.2 0-2.1 26.1-80.8 26.8-80.8.4 0 6.7 18.1 14 40.3zm126-96.1c-.2.7-.3 50.3-.3 110.3l.1 109 70.7.3 70.7.2v-18c0-18 0-18-2.2-18.1-1.3 0-22.9-.1-48-.1-41.9 0-45.8-.1-45.9-1.6 0-1-.2-42.4-.2-92.2l-.2-90.5-22.1-.3c-17.2-.2-22.3 0-22.6 1zM183.3 805.3c-7.3 4.1-7.8 4.5-6.8 5.5.6.6 10 6.7 21 13.6 11 6.9 20.5 13 21.1 13.5.7.5 2.7 1.8 4.5 2.8 8.8 4.7 15.4 10.8 17.9 16.6 1.6 3.7 1.9 7.9 2.4 35.7.5 31.3.5 31.5-1.8 37.3-1.3 3.1-2 6-1.5 6.2 2 1.3 8.9-3.6 11.5-8.1l2.7-4.6V893c-.1-32.5-.6-40.8-2.8-44.9-2.6-5.1-9.4-10.1-34-25.6-13.7-8.6-26.2-16.5-27.6-17.5-2.6-1.8-2.7-1.8-6.6.3z"/><path d="M160.3 819.3c-2.9 1.8-5.3 3.5-5.3 3.8 0 .3 12.6 8.4 28 18 15.5 9.5 30 19.2 32.3 21.4 2.6 2.5 4.7 5.7 5.5 8.3.9 2.8 1.4 14.1 1.7 34.2.5 30 .5 30.1-1.9 36l-2.5 6h2.2c2.9 0 9.2-5.2 11.4-9.3 1.5-2.7 1.7-6.6 1.6-27.2 0-32.3-.4-43.2-1.5-47.3-1.6-5.7-8.2-11.4-26.3-22.6-9.3-5.7-20.1-12.5-24-14.9-3.8-2.4-9-5.6-11.5-7l-4.5-2.6-5.2 3.2z"/><path d="M139.3 832.6c-2.9 1.9-5.3 3.6-5.3 3.8 0 .2 5.3 3.6 11.8 7.6 6.4 3.9 16.7 10.3 22.7 14.1 6.1 3.8 11.7 7.3 12.5 7.6 2.8 1.3 11.5 7.6 14.2 10.4 5.6 5.8 5.9 7.7 6.5 41.5.4 29.3.3 31.4-1.5 35.5-3.5 7.8-3.5 7.9.1 6.7 4.1-1.4 8.4-5.3 10.7-9.8 1.6-3.2 1.7-6.4 1.4-35.5-.4-35.9-.5-36.8-2.8-41.2-2.4-4.8-8-9-30.9-23.2-11.5-7.2-21.4-13.4-22-13.9-.7-.5-3.7-2.3-6.7-3.9l-5.5-3.1-5.2 3.4z"/></svg>